<svg xmlns="http://www.w3.org/2000/svg" width="23.957" height="23.154" viewBox="0 0 23.957 23.154">
  <g id="Grupo_980" data-name="Grupo 980" transform="translate(-52.743 -618.127)">
    <path id="checkbox"
      d="M18.524,20.983H2.459A2.462,2.462,0,0,1,0,18.524V2.459A2.462,2.462,0,0,1,2.459,0H18.524a2.462,2.462,0,0,1,2.459,2.459V18.524A2.462,2.462,0,0,1,18.524,20.983ZM2.459,1.639a.821.821,0,0,0-.82.82V18.524a.821.821,0,0,0,.82.82H18.524a.821.821,0,0,0,.82-.82V1.836C19.344,1.384,18.976,1.639,2.459,1.639Z"
      transform="translate(52.743 620.298)" fill="#868f98" />
    <path id="check"
      d="M865.016,3839a2.026,2.026,0,0,0-1.432.677c-3.3,3.561-6.307,7.053-9.474,10.539L850.387,3847a1.984,1.984,0,0,0-2.93.347,2.373,2.373,0,0,0,.324,3.162h0l5.209,4.489a1.972,1.972,0,0,0,2.778-.175c3.747-4.046,7.1-8.02,10.766-11.976a2.37,2.37,0,0,0,.027-3.175A2,2,0,0,0,865.016,3839Z"
      transform="translate(-790.459 -3220.871)" fill="#1ad598" />
  </g>
</svg>