<svg xmlns="http://www.w3.org/2000/svg" width="358.885" height="60.044" viewBox="0 0 358.885 60.044">
  <path id="Caminho_3270" data-name="Caminho 3270"
    d="M549.775,62.06c-8.788-4.971-59.939,4.024-64.455,2.636-3.5-1.735-4.019-36.205-1.793-41.457.79-1.868,1.965-2.232,4.914-1.59,3.563.967,47.628-3.441,62.188-4.769.881,1.037,2.782-2.639,3.356-1.358,1.07,1.9,100.562-3.1,103.358-3.179,4.864-.139,1.07,1.947,6.779,1.166,12.157-1.666,38.771.378,47.985-1.285,7.42-1.341,9-1.361,16.091.053,6.191,1.232,45.717,1.232,50.319-.907,1.115-.609,1.928-.328,1.883.437,0,.079,13.454,1.182,13.562,1.192,6.783.6,13.553,1.338,13.6,1.636a1.1,1.1,0,0,0,1.748.705c1.436-.811,30.57-1.659,30.823.609.723,6.448-5.935,33.168-9.737,39.54-4.038,6.759-21.289-2.371-36.531,1.027-77.042-3.643-66.9-2.788-83.152-.285-1.671-2.341-8.07,3.222-12.049-.878-1.621-1.669-13.3-2.063-15.9-.411-1.093.7-16.6-.007-32.584-.1s-32.449.474-35.353,2.782C602.51,53.652,555.9,61.3,549.775,62.06Z"
    transform="matrix(-1, -0.017, 0.017, -1, 839.868, 79.497)" fill="#e60404" opacity="0.91" />
</svg>