<svg xmlns="http://www.w3.org/2000/svg" width="310.016" height="26.135" viewBox="0 0 310.016 26.135">
  <g id="Grupo_1261" data-name="Grupo 1261" transform="translate(0.055 -0.015) rotate(1)">
    <path id="Caminho_3187" data-name="Caminho 3187"
      d="M.368.444C-.1.479.07.073,0,0A.7.7,0,0,1,.4.136L.484,5.473a.221.221,0,0,1-.01-.31L.4.446C.378.463.364.465.368.444Z"
      transform="translate(309.742 12.466)" fill="#ff6565" />
    <path id="Caminho_3188" data-name="Caminho 3188" d="M1.034.2,1.2.354,0,0Z" transform="translate(301.744 16.742)"
      fill="#ff6565" />
    <path id="Caminho_3189" data-name="Caminho 3189"
      d="M0,.489C.546-.233,2.611.475,3.839.167L4.019,0,4.7.528A28.8,28.8,0,0,0,0,.489Z"
      transform="translate(295.629 16.793)" fill="#ff6565" />
    <path id="Caminho_3190" data-name="Caminho 3190"
      d="M.148.193C.334-.087-.719,0,1.022.066A1.272,1.272,0,0,0,.873.141C.719.145.506.156.148.193Z"
      transform="translate(291.948 18.767)" fill="#ff6565" />
    <path id="Caminho_3191" data-name="Caminho 3191" d="M.1,0C.861-.017-.346.25.1,0Z"
      transform="translate(292.717 18.908)" fill="#ff6565" />
    <path id="Caminho_3192" data-name="Caminho 3192"
      d="M.425,0,1.462.191C1.284.36.408.439.757.538-.285.456-.105.289.425,0Z" transform="translate(288.89 18.924)"
      fill="#ff6565" />
    <path id="Caminho_3193" data-name="Caminho 3193" d="M0,0,.533.076C.455.147.324.177,0,0Z"
      transform="translate(288.281 18.467)" fill="#ff6565" />
    <path id="Caminho_3194" data-name="Caminho 3194"
      d="M1.13.332,0,.171C.123.053.1-.171.515.224.388.024.64.21,1.13.332Z" transform="translate(288.814 18.372)"
      fill="#ff6565" />
    <path id="Caminho_3195" data-name="Caminho 3195" d="M0,.5C.529.319,1.23.19.19,0,2.1,0,1.916.5,0,.5Z"
      transform="translate(290.541 18.072)" fill="#ff6565" />
    <path id="Caminho_3196" data-name="Caminho 3196" d="M0,.238.706,0l.687.2C1.05.1-.005.456,0,.238Z"
      transform="translate(295.13 16.35)" fill="#ff6565" />
    <path id="Caminho_3197" data-name="Caminho 3197" d="M.014.6C-.075.455.275.191.315,0l.763.133C.72.252.024.379.014.6Z"
      transform="translate(283.188 18.983)" fill="#ff6565" />
    <path id="Caminho_3198" data-name="Caminho 3198" d="M1.143.224,0,.025C.974-.052,1.175.059,1.143.224Z"
      transform="translate(282.36 18.759)" fill="#ff6565" />
    <path id="Caminho_3199" data-name="Caminho 3199" d="M.348,0l1.9.442L0,.01Z" transform="translate(287.614 17.709)"
      fill="#ff6565" />
    <path id="Caminho_3200" data-name="Caminho 3200" d="M.518.15,1.2.459,0,0Z" transform="translate(278.501 19.654)"
      fill="#ff6565" />
    <path id="Caminho_3201" data-name="Caminho 3201"
      d="M2.1,0c.511.259-.544.506-.026.656A7.463,7.463,0,0,1,0,.243,4.4,4.4,0,0,0,2.1,0Z"
      transform="translate(274.132 19.88)" fill="#ff6565" />
    <path id="Caminho_3202" data-name="Caminho 3202" d="M0,0A8.656,8.656,0,0,1,1.031.269,4.362,4.362,0,0,1,0,0Z"
      transform="translate(273.101 19.854)" fill="#ff6565" />
    <path id="Caminho_3203" data-name="Caminho 3203" d="M.786,0A1.049,1.049,0,0,1,0,.461L.356.027Z"
      transform="translate(279.72 18.948)" fill="#ff6565" />
    <path id="Caminho_3204" data-name="Caminho 3204" d="M.939,0,.927.014,0,.082Z" transform="translate(279.149 18.961)"
      fill="#ff6565" />
    <path id="Caminho_3205" data-name="Caminho 3205" d="M.109.032,0,.039C.034,0,.057-.019.109.032Z"
      transform="translate(280.506 18.909)" fill="#ff6565" />
    <path id="Caminho_3206" data-name="Caminho 3206" d="M1.333.8C.647.6-.741.415.493,0,1.007.26.3.5,1.333.8Z"
      transform="translate(283.825 17.426)" fill="#ff6565" />
    <path id="Caminho_3207" data-name="Caminho 3207" d="M0,.151,1.147,0c0,.11-.184.279.156.378Z"
      transform="translate(281.055 18.248)" fill="#ff6565" />
    <path id="Caminho_3208" data-name="Caminho 3208" d="M0,0,.594.1.169.159Z" transform="translate(280.461 18.295)"
      fill="#ff6565" />
    <path id="Caminho_3209" data-name="Caminho 3209"
      d="M1.715.364A6.06,6.06,0,0,0,0,.222,16.078,16.078,0,0,1,1.986,0C2.1.125,2.431.344,1.715.364Z"
      transform="translate(273.31 19.006)" fill="#ff6565" />
    <path id="Caminho_3210" data-name="Caminho 3210" d="M.116.05C.08.042.034.039,0,.032.062-.007.115-.021.116.05Z"
      transform="translate(277.363 19.086)" fill="#ff6565" />
    <path id="Caminho_3211" data-name="Caminho 3211" d="M0,.079.085,0,.121.07Z" transform="translate(267.192 19.449)"
      fill="#ff6565" />
    <path id="Caminho_3212" data-name="Caminho 3212"
      d="M.133.046a1.816,1.816,0,0,1,1.112.1A11.82,11.82,0,0,0,.036.129C-.017.073-.031.034.133.046Z"
      transform="translate(275.26 18.877)" fill="#ff6565" />
    <path id="Caminho_3213" data-name="Caminho 3213" d="M0,.269A7.749,7.749,0,0,1,.826,0C.595.143.112.372,0,.269Z"
      transform="translate(271.359 19.475)" fill="#ff6565" />
    <path id="Caminho_3214" data-name="Caminho 3214" d="M.04,0A.754.754,0,0,0,.118.015C-.03.112-.017.067.04,0Z"
      transform="translate(277.175 19.24)" fill="#ff6565" />
    <path id="Caminho_3215" data-name="Caminho 3215"
      d="M.71.22A3.992,3.992,0,0,1,0,0,6.707,6.707,0,0,1,.858.1.589.589,0,0,0,.71.22Z"
      transform="translate(276.505 19.02)" fill="#ff6565" />
    <path id="Caminho_3216" data-name="Caminho 3216"
      d="M1.237,0c.157.379,1.536.668,2.6.2C5,.435,4.5,1.729,3.652,2.481c-.065-.165-.093-.32-1.284-.49.365-.228,2.464-.613,1.431-.912-1.559-.123-1.224.2-1.928.435C2.417,1.012-.2.9.012.185L1.394.379C1.4.27.883.114,1.237,0Z"
      transform="translate(263.625 16.968)" fill="#ff6565" />
    <path id="Caminho_3217" data-name="Caminho 3217"
      d="M2.149,0l.482.025a5.112,5.112,0,0,0-1.543.6C.266.475.077.341,0,.216L2.321.049Z"
      transform="translate(267.313 19.303)" fill="#ff6565" />
    <path id="Caminho_3218" data-name="Caminho 3218"
      d="M2.126,1.007c-.445-.4-1.614-.52-1-1,1.394-.039,1.037.3,1.9.441-2.26.005.687.2-.89.516a10.9,10.9,0,0,0,1.231.051c-.395.07-.773.152-1.125.246l.046-.029H2.3l0-.006c.087-.057.113-.09.01-.054a.186.186,0,0,0-.049-.006.466.466,0,0,0-.13-.152c-.633.118-.082.113.13.152.011.02.033.039.039.061l-.008.005L0,1.11A13.665,13.665,0,0,1,2.126,1.007Z"
      transform="translate(269.944 18.218)" fill="#ff6565" />
    <path id="Caminho_3219" data-name="Caminho 3219" d="M.186,0C.123.04.131.07.132.1-.023.057-.084.024.186,0Z"
      transform="translate(282.769 16.589)" fill="#ff6565" />
    <path id="Caminho_3220" data-name="Caminho 3220"
      d="M.93.2a1.392,1.392,0,0,0,.863.141C2.23.19,1.754.138,1.753,0c.34.1,1.174.244.209.5L1.792.446C.915.633-.151,1.209.018,1.259A2.6,2.6,0,0,1,.93.2Z"
      transform="translate(281.148 16.689)" fill="#ff6565" />
    <path id="Caminho_3221" data-name="Caminho 3221" d="M1.907.52,0,.407.886,0,.878.219C1.925.082,1.744.36,1.907.52Z"
      transform="translate(275.084 17.433)" fill="#ff6565" />
    <path id="Caminho_3222" data-name="Caminho 3222" d="M.865.141l.327.428L0,0Z" transform="translate(266.151 19.606)"
      fill="#ff6565" />
    <path id="Caminho_3223" data-name="Caminho 3223" d="M.531,0,.689.379,0,.174Z" transform="translate(264.037 19.805)"
      fill="#ff6565" />
    <path id="Caminho_3224" data-name="Caminho 3224" d="M.5.149,0,0A2.729,2.729,0,0,1,.5.149Z"
      transform="translate(126.956 13.354)" fill="#ff6565" />
    <path id="Caminho_3225" data-name="Caminho 3225" d="M.1,0,.137.194C-.012.078-.062,0,.1,0Z"
      transform="translate(131.271 13.774)" fill="#ff6565" />
    <path id="Caminho_3226" data-name="Caminho 3226"
      d="M1.635,0C.82.354-.1.905.009.474L.267.055A3.576,3.576,0,0,0,1.635,0Z" transform="translate(202.561 20.822)"
      fill="#ff6565" />
    <path id="Caminho_3227" data-name="Caminho 3227" d="M0,.121.25,0,.745.417Z" transform="translate(163.22 17.502)"
      fill="#ff6565" />
    <path id="Caminho_3228" data-name="Caminho 3228" d="M1.087,0,0,.242A6.08,6.08,0,0,1,1.087,0Z"
      transform="translate(161.776 15.869)" fill="#ff6565" />
    <path id="Caminho_3229" data-name="Caminho 3229" d="M.448.481,0,0C.977.1.457.268.448.481Z"
      transform="translate(105.923 10.688)" fill="#ff6565" />
    <path id="Caminho_3230" data-name="Caminho 3230"
      d="M1.722.138A8.639,8.639,0,0,1,0,.425C.823.169,1.469-.205,1.722.138Z" transform="translate(237.667 20.295)"
      fill="#ff6565" />
    <path id="Caminho_3231" data-name="Caminho 3231" d="M.4.289C.084.188-.032.092.008,0,.332.1.5.192.4.289Z"
      transform="translate(127.167 17.744)" fill="#ff6565" />
    <path id="Caminho_3232" data-name="Caminho 3232"
      d="M0,.105C.12.061.239.038.362,0A8.833,8.833,0,0,0,2.019.07,2.962,2.962,0,0,1,0,.105Z"
      transform="translate(235.648 20.65)" fill="#ff6565" />
    <path id="Caminho_3233" data-name="Caminho 3233" d="M.2.017C.133.029.061.029,0,.044.01-.013.089-.006.2.017Z"
      transform="translate(29.578 1.928)" fill="#ff6565" />
    <path id="Caminho_3234" data-name="Caminho 3234" d="M0,0C.209.052.573.1.913.145A3.438,3.438,0,0,1,0,0Z"
      transform="translate(5.231 3.309)" fill="#ff6565" />
    <path id="Caminho_3235" data-name="Caminho 3235" d="M0,0C.525.01.089.044,0,0Z" transform="translate(254.713 20.355)"
      fill="#ff6565" />
    <path id="Caminho_3236" data-name="Caminho 3236" d="M.238.2A.343.343,0,0,1,0,0,.44.44,0,0,0,.238.2Z"
      transform="translate(256.761 18.412)" fill="#ff6565" />
    <path id="Caminho_3237" data-name="Caminho 3237" d="M.044.056,0,.058C.149-.027.123-.011.044.056Z"
      transform="translate(230.25 18.166)" fill="#ff6565" />
    <path id="Caminho_3238" data-name="Caminho 3238" d="M.649,0A4.768,4.768,0,0,1,0,.147,4.918,4.918,0,0,1,.649,0Z"
      transform="translate(254.821 20.138)" fill="#ff6565" />
    <path id="Caminho_3239" data-name="Caminho 3239" d="M0,.056.45,0C.526.067.474.113,0,.056Z"
      transform="translate(255.393 20.284)" fill="#ff6565" />
    <path id="Caminho_3240" data-name="Caminho 3240"
      d="M0,.072A6.061,6.061,0,0,0,.837,0C.739.032.7.057.729.07.575.069.358.067,0,.072Z"
      transform="translate(253.984 20.285)" fill="#ff6565" />
    <path id="Caminho_3241" data-name="Caminho 3241" d="M.353.136C.313.144.27.147.224.16-.181-.078.024-.02.353.136Z"
      transform="translate(69.964 8.179)" fill="#ff6565" />
    <path id="Caminho_3242" data-name="Caminho 3242" d="M.019,0C.043,0,.055.016.077.021L0,.035Z"
      transform="translate(190.855 16.336)" fill="#ff6565" />
    <path id="Caminho_3243" data-name="Caminho 3243" d="M0,0A2.015,2.015,0,0,0,1.812.373l-.68,1.2Z"
      transform="translate(189.043 15.998)" fill="#ff6565" />
    <path id="Caminho_3244" data-name="Caminho 3244"
      d="M117.317,12.606l1.41-.26c-1.306-.748-2.488-.634-1.1-1.052-.3,1.317,4.875.559,4.591,1.869l.935-.2c-.245-.007-.256-.086-.5-.093,1.847-.49.885,1.037,3.061,1.023.768-.04,1.344-.193.894-.384l1.532.447c.485.011.441-.224-.041-.235l2.465.292-.007-.04a9.133,9.133,0,0,0,1.361.767c.693-.142-.278-.162-.065-.312l1.293.416c.665-.3-.387-.708-1.357-.728,1.683-1.211,1.052.416,4.063-.16l-1.257-.253c1.054-.685,1.991-.345,3.586-.713-.408.223-3.269.968-1.861,1.394a3.086,3.086,0,0,1,1.761.233c.134-.464.893-.3,1.877-.213l.092-.62c1.021.243.857.554,1.419.866a2.21,2.21,0,0,0,1.949-.843c1.929.01-1.5.691.733.935a12.09,12.09,0,0,1,4.536.623c1.16-.162-.119-.387.317-.545l.892.537c.245,0,.2-.156.171-.234.8.229-.051.62,1.234.848.238.7,2.874-.886,4.37-.048.428-.16-.135-.387.025-.622a17.143,17.143,0,0,1,3.6,1.177l1.628-.362c-1.217.433.2,1.025,1.444,1.513-.439.213-.816.4-1.064.487l2.04.39c.264-.095.079-.313-.231-.581.135.055.264.109.363.159.77-.208.426-.577-.065-.937-.267.115-.534.239-.793.361-.468-.391-.9-.821-.746-1.18a2.073,2.073,0,0,0,.659.186c-.122-.106-.2-.2-.127-.259s.277.08.6.247l.551-.678.082.277,2.756-.357c1.859.742,3.441,1.809,6.5,2.167-.717-.523-.084-.831-.069-1.432-.9.616-2.356-.328-3.962-.238.839-.047.685-.337.484-.442l2.784.648c-.016-.492.64-.353,1.4-.541-.654.958,2.059.691,3.191,1.013.1-.324-.148-.663-1.566-.614,1.62-.7,1.913,1.182,3.5.594-.344-.016-.535.031-.657-.138.782.309,2.772.113,2.33-.179l-.344-.013c2.3-.075,6.966.114,7.26.938a3.816,3.816,0,0,0-.367-1.167l3.936,2.83c-.322-.713,1.146-2.382-.73-2.808a5.333,5.333,0,0,1,2.365.063c-.376.1-.978,1.012-.472,1.084a12.832,12.832,0,0,1,2.739-1.068c-.564.147.008,1.263.893,1.236-.131-.167.117-1.1-.2-1.214l2.153,1.111c-.541-.2-.064-.925.436-1.229-.234.214,1.894-.005,2.474.1l-.935.248c2.477-.152,2.408,1.547,4.875,1.5a.855.855,0,0,1,.539-1.521c.56.562,2.506,2.69,4.7,3.123l.42-.319,1.681.365a35.053,35.053,0,0,0-5.554-3.3c.928-.252.261-.376,1.646-.346.49-.3-.752-.455-1.158-.473l3.219-.19c-.144.652,2.464.657,2.345,1.2l-3.5-.677c-.147.648,2.026,1.858,4.322,1.734.581-.262-.447-1.16-.4-1.377a5.224,5.224,0,0,0,2.383.261l-.975-.345c1.266-.25,2.092.857,3.609.229.528-.042,1.552-.851,1.654-.465-.837.751-.952,3.054-.357,3.608a23.226,23.226,0,0,0,3.365-1.107c.85-.59-1.36-1.379-.636-1.887.038.177.527.393.73.463.549-.157-.25-.55.957-.48.229.66,2.45-.076.594.554,1.189.18,1.248-.15,2.634-.138-.421.433,1.321,1.437,2.522,1.61-.079-.167.174-.389.3-.491,2.425-.087,3.7-.42,5.963-.464.2-.163,1.269-.377.782-.653a3.291,3.291,0,0,0,1.348.333c1.3-.6-1.558-.061-.591-.766.12.385,1.843.494,2.857.709-.249.6-2.282.169-3.294-.057.062.819,1.868,1.645,4.28,1.964,1.906.159.764-.548,1.1-.438,3.521-.223,3.175,1.354,6.053.682,1.1-.554-.074-1.037.14-1.42-1.554-.154-2.312.4-3.354.406l1.251-.283a4.553,4.553,0,0,0-2.083-.1c.922-.493,5.952-.249,8.611-.774.506.158,1.366.31,1,.533l-.871-.044c-.735.446,1.7.525.639.758a10.092,10.092,0,0,0,4.166.383l.215-.6c-.008.175-1.012.389-1.5.225.723.242,2.373-.89,3.24-.145l-1.077.456a11.473,11.473,0,0,0,4.175.58c-.56.611-.344-.054-1.261.672.752-.888-3.708.183-2.416-.77-.931.839-1.776.4-3.06,1.13.014-.2.436-.391-.77-.253a1.46,1.46,0,0,0-.293-.163l-.08.017.064-.025c-.057-.028-.063-.034.024-.009a1.275,1.275,0,0,0,.577-.319c-.67-.429-2.6-.349-3.286-.559-.709.117.332.214-.034.436l-1.023-.316c-.039.437-1.828.777-.09.983l-1.533.063a6.737,6.737,0,0,1-2.9.241c-.715.114-1.884-.43-1.215-.107l-2.437-.211-.011.109c-2.374.11-4.95-.6-7.6.226a11.435,11.435,0,0,0-2.974-.067l-.235.382c-1.036-.114-3.066.418-3.531.033-1.055,1.032-4.984.285-6.783.474l-.086-.491a25.739,25.739,0,0,1-3.988-.28l.085-.435c-1.335-.353-3.41.321-5.515.284.144.166.677.12,1.054.018-2.511.993-5.3-.716-7.578,0a2.41,2.41,0,0,0-1.377,0,.448.448,0,0,1,.14.023c-.058,0-.144.005-.233,0-.252.074-.511.16-.793.227a3.45,3.45,0,0,1,.668-.229,12.923,12.923,0,0,1-1.749-.181l-.287.466c-.053-.006-.1-.006-.15-.014-.644.169-.509-.224-.16-.573a4.178,4.178,0,0,1-.853-.287c-.539.751-1.7-.262-2.429.537-.426-.4-3.26-.326-3.57-1.154-.027.108-.22.157.13.167a4.508,4.508,0,0,1-2.093-.064l-.336.591-1.54-.818c-.977.349-1.388.554-.458,1.024-2.265-.734-1.856-.29-3.77-1.013l.072.385c-.7-.023-1.783-.554-2.225-.245-1.617.706-7.743-.033-11.82.552.888-1.111-1.917.464-1.989-.417-.261.261-.836.4-.209.646-2.023-.313-3.128.348-4.463-.425-.264.262.4.4.17.556-.158-.062-.626-.247-.857-.095s.275.233.587.356c-2.092-.1-2.208-.932-2.271-1.707a2.178,2.178,0,0,1-2.327-.258c-.4.242-1.047.489.241.616-.726.021-4.523.24-4.518-.386a2.19,2.19,0,0,1-1.217-.065c-1.653-.021-1.806.024-3.413-.1l.465-.083c-.51-.77-1.312-.216-2.6-.366l.023.078c-3.086.4-1.234-.307-4.3.155l.259-.454c-.055-1.009-2.728.458-4.347-.024l.677-.229c-.841-.393-2.929,1.207-3.9,1.269-.227.074.287.159.557.24-2.612.434-.164-.625-1.952-.878-.425.305.214.856-1.037.84-.693.223-3.27-1.29-5.121-.788.444-.224.883-.448.1-.7-1.261-.18-3.8.694-4.709-.187-.186.056-.27.116-.3.178-.923-.276-3.093-.59-3.537-1.065-1.472,1.517-5.825-1.281-6.333.177l-2.99-.346.022.156a4.4,4.4,0,0,1-3.048-.9c-.484.058-.214.224-.207.3-2.925.025-3.189-.059-5.235-1.015l-.441.447c-.524-.336-4.359.341-6.886-.5,0,.056.02.153.211.242-2.856-.864-8.079.473-8.364-1.361L87.7,13.217c2.684.186-.009-.784,1.211-.936-.97-.224-2.917.191-1.7.431l.241-.061c0,.945-3.407-.09-3.659.52-5.116-.693-10.367-.882-15.156-1.494l.945-.608L67.9,10.881c-.527.1-.895.454.307.588a1.616,1.616,0,0,1-1.746-.748c-2.478-.04.443.92-.277.84l-.936-.183.264-.05a2.8,2.8,0,0,0-1.96-.851c-.978.014-.705.358-1.074.337-.026.048-.158.055-.554-.054L59.8,10.535l1.144-.427c-.772-.391-1.979-.237-.665-.718-1.955.747-7.979-.7-9.012-.511a10.753,10.753,0,0,0-3.989-.867c.457-.064,1.02-.644-.4-.74-.165,1.321-2.809.233-4.4,1C43.8,7.8,38.66,7.639,40.663,6.979c-1.2-.041-.316.463-1.34.651-2.478-.827-6.178-.43-9.465-1.014.031-.172.725-.356.125-.692l-2.2.607c-.625-.164-.134-1.033-1.639-.609.241-.118.6-.3.183-.4a68.86,68.86,0,0,1-10.154-1.09A44.754,44.754,0,0,0,5.486,3.864c1.107-.206.506-.313-.194-.411.5-.02.221-.408.437-.62l-1.6.136-1.106.093-.538.029c-.09-.346-.836-.473-1.423-.556C.455,2.451.031,2.419,0,2.112l.3.076.314.084c-.306-.4.1-.775.863-1.128C2.22.79,3.193.459,3.373,0,4.2,1,7.485-.736,9,.671c.577-.125-.247-.338.123-.516.333.451.953.612,2.27.588L11.307.631c3.4.516,5.021.3,9.073.536l-.508.411a5.522,5.522,0,0,0,1.564-.136c.633.8-2.38-.255-1.865.6,1.559-.771,5.93.723,7.2-.217,1.3.155-.636.47.66.625l.482-.237.147.4a1.99,1.99,0,0,0,1.631-.483,4.032,4.032,0,0,1-.763-.187c1.266-.192,3.047.5,3.479.438L31.072,2.4c3.4.7,7.9.87,11.015,1.86l-.369.178c2.4.712,2.206.028,4.97.563l-.077-.063a4.8,4.8,0,0,0,1.963.554c-.591-.336,1.613-.309.811-.7,2.6.768,1.225.5,2.668,1.518l.62-.292c.464.4.428.566,1.8.843-1-.451,1.2-.41.111-.976,3.424-.369,4.008,1.352,6.009.425.822,1.143-2.887.188-2.236.5-.82.228.724.867,1.712.9.961.107,2.323-1.01,4.7-.666-.24-.028-.215-.1-.454-.13,1.036-.123,1.563.569,2.888.322.278.663,1.442.161,1.19.924l-2.09-.47c1.129.363,1.792,1.387,4.078,1.246a2.52,2.52,0,0,0-.921-.616c.724-.137,1.067.3,1.816.162.252-.764-2.565-.523-3.568-1.269.823-.225,2.205.879,2-.013.369,1.149,2.423.192,3.586,1.189l.15-.458a3.161,3.161,0,0,0,1.1.437l-.518-.69c1.023.667,2.76-.088,3.855.345-2.608-.364-.892.455-2.184.631,2.894,1.026,2.52-.908,6-.221-.453-.127-1.983.025-1.334.332a9.011,9.011,0,0,0,2.292-.23c2.337.4-.62.41.247.815,1.112-.437,1.054.372,2.012.681l.252-.452c2.884.051.219,1.035,2.869.991l-.709-.758,1.2.322.006-.548a5.967,5.967,0,0,0,3.115.524c-.479.283-.238.846.97,1,.961-.174-.249-.486,1.436-.221-.249-.33-.495-.737-1.448-.4,0-.157-.24-.33-.245-.485a8.8,8.8,0,0,1,2.878.261,2.835,2.835,0,0,0-.721.032l2.185.908c.472-.128.225-.3-.019-.469a11.786,11.786,0,0,0,1.455.471c-.023-.392.2-.768-.765-1.057l2.173.663c.23-.145,1.406-.317,1.159-.486,1.415-.085,2.947,1.055,4.833.938a1.063,1.063,0,0,0,.569.259c1.694.08,3.346-.239,5.106.46l1.38-.566c1.479.293-1.845.7.622,1.194,1.736.381.9-.509,1.61-.637a5.35,5.35,0,0,0,3.961.849A9.475,9.475,0,0,0,117.317,12.606Zm18.963,1.778c-.344-.122-.995-.471-1.344-.216C135.205,14.726,135.606,14.494,136.28,14.384Zm29.058,2.422a1.6,1.6,0,0,0-1.214.065A3.316,3.316,0,0,0,165.338,16.805ZM248.1,20.151a.261.261,0,0,1-.044-.021C247.229,20.336,247.521,20.256,248.1,20.151Zm1.736-.253c.186.06.182.125.115.193a1.724,1.724,0,0,0-.981-.065C249.079,19.9,249.3,19.809,249.835,19.9ZM62.386,10.622l.4-.073C62.117,10.317,62.257,10.463,62.386,10.622Z"
      transform="translate(0.852 0)" fill="#ff6565" />
    <path id="Caminho_3245" data-name="Caminho 3245" d="M.277,0A.472.472,0,0,0,.086.249C-.053.167-.045.076.277,0Z"
      transform="translate(162.638 16.072)" fill="#ff6565" />
    <path id="Caminho_3246" data-name="Caminho 3246" d="M.084.089c-.021,0-.04,0-.06,0A.133.133,0,0,1,0,0Z"
      transform="translate(106.371 11.169)" fill="#ff6565" />
    <path id="Caminho_3247" data-name="Caminho 3247" d="M.685,0A1.784,1.784,0,0,0,0,.247C-.021.133.138.035.685,0Z"
      transform="translate(222.558 16.455)" fill="#ff6565" />
    <path id="Caminho_3248" data-name="Caminho 3248"
      d="M1.149.27,0,.193A2.383,2.383,0,0,0,.993,0C.985.11.8.276,1.149.27Z" transform="translate(258.993 20.106)"
      fill="#ff6565" />
    <path id="Caminho_3249" data-name="Caminho 3249"
      d="M.334,0C.507.049.681-.011.853.04L.847.258C.15.278-.368.127.334,0Z" transform="translate(269.043 17.065)"
      fill="#ff6565" />
    <path id="Caminho_3250" data-name="Caminho 3250"
      d="M0,.293C.025-.1.751,0,1.55.044A1.012,1.012,0,0,0,1.411.05C1.736.59.865.441,0,.293Z"
      transform="translate(260.933 18.491)" fill="#ff6565" />
    <path id="Caminho_3251" data-name="Caminho 3251" d="M0,.019A4.778,4.778,0,0,0,.729,0C.86.216.442.057,0,.019Z"
      transform="translate(262.667 18.523)" fill="#ff6565" />
    <path id="Caminho_3252" data-name="Caminho 3252" d="M.736.025c.361-.114.3.494.494.327C1.716.838-1.352-.168.736.025Z"
      transform="translate(252.22 20.066)" fill="#ff6565" />
    <path id="Caminho_3253" data-name="Caminho 3253" d="M.7,0,.5.5,0,.122Z" transform="translate(260.651 17.467)"
      fill="#ff6565" />
    <path id="Caminho_3254" data-name="Caminho 3254"
      d="M0,.177,1.235,0c-.007.082.159.124.36.154C.825.2-.009.322,0,.177Z" transform="translate(255.218 17.872)"
      fill="#ff6565" />
    <path id="Caminho_3255" data-name="Caminho 3255" d="M0,.015A3.377,3.377,0,0,1,1.022.061,7.743,7.743,0,0,1,0,.015Z"
      transform="translate(256.813 18.012)" fill="#ff6565" />
    <path id="Caminho_3256" data-name="Caminho 3256" d="M1.232,0,.878.116,0,.186Z" transform="translate(258.389 17.389)"
      fill="#ff6565" />
    <path id="Caminho_3257" data-name="Caminho 3257"
      d="M1.42.34.036.233C-.119.07.244-.04.761.014,1.1.122,1.614.175,1.42.34Z" transform="translate(240.314 18.185)"
      fill="#ff6565" />
    <path id="Caminho_3258" data-name="Caminho 3258" d="M.669.215C.311.326.3.436.108.6L0,0Z"
      transform="translate(245.063 16.883)" fill="#ff6565" />
    <path id="Caminho_3259" data-name="Caminho 3259" d="M1.023.436C.87.272-1,0,.729,0,.883.162,2.263.27,1.023.436Z"
      transform="translate(240.715 16.616)" fill="#ff6565" />
    <path id="Caminho_3260" data-name="Caminho 3260" d="M0,0,.349,0,.33.993Z" transform="translate(221.188 18.125)"
      fill="#ff6565" />
    <path id="Caminho_3261" data-name="Caminho 3261"
      d="M.171.04C1.788-.188.542.651,2.006.364,2.381.6.809.6,1.194.8.224.551-.29.687.171.04Z"
      transform="translate(202.88 15.74)" fill="#ff6565" />
    <path id="Caminho_3262" data-name="Caminho 3262" d="M0,0A4.849,4.849,0,0,1,.495.153,2.155,2.155,0,0,1,0,0Z"
      transform="translate(204.074 16.542)" fill="#ff6565" />
    <path id="Caminho_3263" data-name="Caminho 3263"
      d="M.661.15S.456.178.292.214A2.6,2.6,0,0,0,0,.292,2.931,2.931,0,0,1,.483,0Z" transform="translate(0.702 3.193)"
      fill="#ff6565" />
    <path id="Caminho_3264" data-name="Caminho 3264"
      d="M.479,0,.4.314.34.628A2.919,2.919,0,0,0,0,.07C.136.09.37.138.479,0Z" transform="translate(0 2.533)"
      fill="#ff6565" />
    <path id="Caminho_3265" data-name="Caminho 3265" d="M.888,0,.926.155C.726.308.484.306,0,.3Z"
      transform="translate(139.417 13.306)" fill="#ff6565" />
    <path id="Caminho_3266" data-name="Caminho 3266" d="M.393,0,.634.007,0,.533Z" transform="translate(125.988 12.794)"
      fill="#ff6565" />
    <path id="Caminho_3267" data-name="Caminho 3267" d="M.1,0c.479.02.984.2,1.466.215C.578.02-.3.686.1,0Z"
      transform="translate(114.997 11.087)" fill="#ff6565" />
  </g>
</svg>