<svg xmlns="http://www.w3.org/2000/svg" width="275.631" height="37.743" viewBox="0 0 275.631 37.743">
  <path id="Caminho_3269" data-name="Caminho 3269"
    d="M534.224,46.83c-6.766-3.487-46.148,2.822-49.625,1.849-2.691-1.217-3.094-25.4-1.38-29.082.608-1.31,1.513-1.566,3.783-1.115,2.743.678,36.669-2.414,47.88-3.345.678.727,2.142-1.851,2.584-.952.824,1.331,77.425-2.172,79.577-2.23,3.745-.1.824,1.366,5.219.818,9.36-1.168,29.851.265,36.944-.9,5.713-.941,6.93-.955,12.389.037,4.767.864,35.2.864,38.742-.637.859-.427,1.485-.23,1.45.307,0,.056,10.358.829,10.442.836,5.222.42,10.435.938,10.473,1.148a.867.867,0,0,0,1.346.495c1.106-.569,23.536-1.164,23.731.427.556,4.523-4.569,23.267-7.5,27.737-3.109,4.741-16.391-1.663-28.126.72-59.316-2.555-51.507-1.956-64.021-.2-1.286-1.642-6.214,2.26-9.277-.616-1.248-1.171-10.244-1.447-12.24-.288-.841.492-12.778,0-25.087-.067s-24.983.332-27.219,1.951C574.827,40.932,538.943,46.3,534.224,46.83Z"
    transform="translate(-482.189 -11.039)" fill="#feef38" opacity="0.7" />
</svg>