<svg xmlns="http://www.w3.org/2000/svg" width="150.487" height="155.342" viewBox="0 0 150.487 155.342">
  <g id="Grupo_1177" data-name="Grupo 1177" transform="translate(-155 -2564.236)" opacity="0.5">
    <g id="Grupo_711" data-name="Grupo 711" transform="translate(155 2564.236)">
      <g id="Grupo_710" data-name="Grupo 710" transform="translate(0 0)">
        <g id="Frame">
          <g id="Grupo_709" data-name="Grupo 709">
            <path id="Caminho_138" data-name="Caminho 138"
              d="M102.02,331.833l46.7-42.233a12.245,12.245,0,0,0,6.5,7.185l-38.738,35.049Z"
              transform="translate(-84.981 -271.153)" fill="#fff" />
            <path id="Caminho_139" data-name="Caminho 139"
              d="M166.8,331.832,128.06,296.783a12.248,12.248,0,0,0,6.5-7.182l46.7,42.231Z"
              transform="translate(-47.816 -271.152)" fill="#fff" />
            <path id="Caminho_145" data-name="Caminho 145" d="M0,0H145.1V92.426H0Z" transform="translate(2.695 60.776)"
              fill="#dee6ff" />
            <path id="Caminho_140" data-name="Caminho 140"
              d="M114.563,383.816A14.578,14.578,0,0,0,100,369.253v-43.69A14.578,14.578,0,0,0,114.563,311h97.089a14.578,14.578,0,0,0,14.563,14.563v43.69a14.578,14.578,0,0,0-14.563,14.563Z"
              transform="translate(-87.864 -240.42)" fill="#fff" />
            <path id="Caminho_146" data-name="Caminho 146"
              d="M11.926,0A12.182,12.182,0,0,1,23.852,12.423,12.182,12.182,0,0,1,11.926,24.846,12.182,12.182,0,0,1,0,12.423,12.182,12.182,0,0,1,11.926,0Z"
              transform="translate(63.318 2.14)" fill="#dee6ff" />
            <ellipse id="Elipse_2" data-name="Elipse 2" cx="5.113" cy="4.474" rx="5.113" ry="4.474"
              transform="translate(70.131 9.924)" fill="#fff" />
            <g id="Grupo_708" data-name="Grupo 708">
              <path id="Caminho_142" data-name="Caminho 142"
                d="M243.06,340.253H229.383l-44.908-40.615a14.563,14.563,0,1,0-28.462,0L111.1,340.253H97.427A2.428,2.428,0,0,0,95,342.68v92.234a2.428,2.428,0,0,0,2.427,2.427H243.06a2.428,2.428,0,0,0,2.427-2.427V342.68A2.428,2.428,0,0,0,243.06,340.253Zm-60.547-35.845,39.632,35.845h-7.228L179.266,308A16.206,16.206,0,0,0,182.513,304.408Zm-12.27,6.719a14.518,14.518,0,0,0,4.464-.706l32.974,29.833H132.806L165.78,310.42A14.518,14.518,0,0,0,170.244,311.127Zm0-24.272a9.709,9.709,0,0,1,0,19.418,9.841,9.841,0,0,1-9.709-9.709A9.719,9.719,0,0,1,170.244,286.854Zm-12.27,17.554a16.229,16.229,0,0,0,3.248,3.59l-35.651,32.255h-7.228Zm82.659,128.079H99.854v-87.38H240.633Z"
                transform="translate(-95 -282)" fill="#51a4ff" />
              <path id="Caminho_143" data-name="Caminho 143"
                d="M215.506,312.427A2.428,2.428,0,0,0,213.079,310H115.99a2.428,2.428,0,0,0-2.427,2.427,12.15,12.15,0,0,1-12.136,12.136A2.428,2.428,0,0,0,99,326.99v43.69a2.428,2.428,0,0,0,2.427,2.427,12.15,12.15,0,0,1,12.136,12.136,2.428,2.428,0,0,0,2.427,2.427h97.089a2.428,2.428,0,0,0,2.427-2.427,12.15,12.15,0,0,1,12.136-12.136,2.428,2.428,0,0,0,2.427-2.427V326.99a2.428,2.428,0,0,0-2.427-2.427A12.15,12.15,0,0,1,215.506,312.427Zm9.709,56a17.033,17.033,0,0,0-14.391,14.391H118.245a17.033,17.033,0,0,0-14.391-14.391v-39.18a17.033,17.033,0,0,0,14.391-14.391h92.579a17.033,17.033,0,0,0,14.391,14.391Z"
                transform="translate(-89.291 -242.038)" fill="#51a4ff" />
              <path id="Caminho_144" data-name="Caminho 144"
                d="M130.282,299.563A7.282,7.282,0,1,0,123,292.282,7.291,7.291,0,0,0,130.282,299.563Zm0-9.709a2.427,2.427,0,1,1-2.427,2.427A2.431,2.431,0,0,1,130.282,289.854Z"
                transform="translate(-55.038 -277.718)" fill="#51a4ff" />
            </g>
          </g>
        </g>
      </g>
      <text id="_30_DIAS" data-name="30 DIAS" transform="translate(75.244 114.453)" fill="#51a4ff" font-size="21"
        font-family="Poppins-Bold, Poppins" font-weight="700">
        <tspan x="-40.351" y="0">30 DIAS</tspan>
      </text>
    </g>
    <g id="Grupo_712" data-name="Grupo 712" transform="translate(202.295 2644.185)">
      <path id="Caminho_147" data-name="Caminho 147"
        d="M18.6,8.88,15.508,10.5l.59-3.438L13.6,4.63l3.452-.5L18.6,1,20.14,4.128l3.452.5-2.5,2.435.59,3.438Z"
        transform="translate(-13.6 -1)" fill="#dee6ff" />
      <path id="Caminho_148" data-name="Caminho 148"
        d="M18.6,8.88,15.508,10.5l.59-3.438L13.6,4.63l3.452-.5L18.6,1,20.14,4.128l3.452.5-2.5,2.435.59,3.438Z"
        transform="translate(-2.096 -1)" fill="#dee6ff" />
      <path id="Caminho_149" data-name="Caminho 149"
        d="M18.6,8.88,15.508,10.5l.59-3.438L13.6,4.63l3.452-.5L18.6,1,20.14,4.128l3.452.5-2.5,2.435.59,3.438Z"
        transform="translate(9.409 -1)" fill="#dee6ff" />
      <path id="Caminho_150" data-name="Caminho 150"
        d="M18.6,8.88,15.508,10.5l.59-3.438L13.6,4.63l3.452-.5L18.6,1,20.14,4.128l3.452.5-2.5,2.435.59,3.438Z"
        transform="translate(20.913 -1)" fill="#dee6ff" />
      <path id="Caminho_151" data-name="Caminho 151"
        d="M18.6,8.88,15.508,10.5l.59-3.438L13.6,4.63l3.452-.5L18.6,1,20.14,4.128l3.452.5-2.5,2.435.59,3.438Z"
        transform="translate(32.417 -1)" fill="#dee6ff" />
    </g>
    <g id="Grupo_713" data-name="Grupo 713" transform="translate(202.295 2688.923)">
      <path id="Caminho_147-2" data-name="Caminho 147"
        d="M18.6,8.88,15.508,10.5l.59-3.438L13.6,4.63l3.452-.5L18.6,1,20.14,4.128l3.452.5-2.5,2.435.59,3.438Z"
        transform="translate(-13.6 -1)" fill="#dee6ff" />
      <path id="Caminho_148-2" data-name="Caminho 148"
        d="M18.6,8.88,15.508,10.5l.59-3.438L13.6,4.63l3.452-.5L18.6,1,20.14,4.128l3.452.5-2.5,2.435.59,3.438Z"
        transform="translate(-2.096 -1)" fill="#dee6ff" />
      <path id="Caminho_149-2" data-name="Caminho 149"
        d="M18.6,8.88,15.508,10.5l.59-3.438L13.6,4.63l3.452-.5L18.6,1,20.14,4.128l3.452.5-2.5,2.435.59,3.438Z"
        transform="translate(9.409 -1)" fill="#dee6ff" />
      <path id="Caminho_150-2" data-name="Caminho 150"
        d="M18.6,8.88,15.508,10.5l.59-3.438L13.6,4.63l3.452-.5L18.6,1,20.14,4.128l3.452.5-2.5,2.435.59,3.438Z"
        transform="translate(20.913 -1)" fill="#dee6ff" />
      <path id="Caminho_151-2" data-name="Caminho 151"
        d="M18.6,8.88,15.508,10.5l.59-3.438L13.6,4.63l3.452-.5L18.6,1,20.14,4.128l3.452.5-2.5,2.435.59,3.438Z"
        transform="translate(32.417 -1)" fill="#dee6ff" />
    </g>
  </g>
</svg>